<svg version="1" xmlns="http://www.w3.org/2000/svg" width="666.667" height="666.667" viewBox="0 0 500.000000 500.000000"><path d="M301 85.7c-1.4.9-3.3 2.6-4.3 3.7-1 1.2-3.3 3.7-5 5.6-1.8 1.9-6.1 6.9-9.7 11-3.6 4.1-8 8.8-9.8 10.6l-3.4 3.2-6.4-2.9c-10.6-4.8-22.4-8.8-32.4-10.8-5.5-1.2-22.4-1.6-27-.6-2.7.5-5 3-5 5.5 0 6.6 18.8 17.8 44.6 26.5 8.5 2.9 16.4 6.1 17.6 7.1 1.1 1.1 3.9 4.3 6.1 7.3 2.2 3 4.8 6.4 5.8 7.5 1 1.2 8.2 10 16 19.6 20.4 25.2 21.1 26.1 24.2 29.1 2.8 2.7 11.7 6.4 13.7 5.7.5-.2-.8-3.1-3-6.5-2.1-3.4-5.2-8.6-6.8-11.5-1.7-2.9-7.5-12.9-13.1-22.3-5.5-9.3-9.9-17-9.8-17.1.2-.1 26 3.2 26.5 3.5.1 0 1.5.1 3.2.1 2.5 0 4 1.3 9.4 7.7 6.4 7.8 11.9 12.7 13.5 12.1.5-.2-1.7-4.4-4.9-9.4-6.6-10.5-7.4-9.9 9-6.9 1.4.3 4.1.7 6 1 15.3 2.4 42.3 8.9 57.1 13.9 35.8 12 54.8 28.2 55.5 47.3.2 3.4-.1 7.7-.7 9.5-.5 1.7-.7 3.3-.5 3.5.6.6 8.2-11.9 9.4-15.6 1.9-5.5 1.4-13-1.2-18.6-5.1-11-18.6-20.8-42.6-30.8-12.7-5.4-44.3-13.8-68-18.2-4.1-.8-8.4-1.6-9.5-1.8-1.1-.3-4.2-.8-7-1.2-2.7-.5-5.3-.9-5.7-1.1-.5-.1-1.9-.2-3.3-.3-2.3-.1-3.6-2.5-1.7-3.3.4-.2 2.4-2.7 4.5-5.6l3.7-5.2-2.4-1.2c-2.1-.9-3.4-.7-7.5 1.1-6.2 2.6-6.4 2.6-7.6-.1-1.6-3.7-3.8-3.2-6 1.5-2.5 5.4-3.4 5.3-17.4-1.7-6-2.9-11.4-5.5-12-5.7-1.5-.5 2.4-14.1 8.3-29.3 5.8-14.7 6.1-15.7 4.5-16.7-1.9-1.2-2.1-1.1-4.9.8zM456.8 242.9c-4.5 1.8-17.1 4.4-26.8 5.6-2.5.3-6.1.7-8 1-1.9.2-10.9.7-20 1-18.4.7-29 1.3-33.5 2-1.6.2-6.8.9-11.5 1.5-13.1 1.7-14.6 2-28.5 4.7-9.9 1.9-44.7 9.7-61.5 13.8-.8.2-12.7 3.1-26.5 6.5-25.1 6.2-64.2 14.3-74.5 15.5-3 .3-6.2.8-7 1-.8.2-4.4.7-7.9 1-3.5.4-9.8 1-14 1.5-7.9.8-44 .5-50.1-.5-27.2-4.2-45-10.3-63.2-21.6-4.6-2.8-8.5-5.4-8.8-5.8-.3-.3-2.5-2.2-5-4.2s-5.6-4.6-6.9-5.8C1.8 259 .5 258 .2 258c-.9 0 .9 10.4 2.8 16 6.3 18.7 25.8 40.8 51.5 58.1 31.2 21.2 61.6 31 95.9 31.2 8.8 0 27.5-1.1 28.6-1.8.3-.1 3.2-.6 6.5-.9 3.3-.4 11-1.8 17-3.2 6.1-1.4 11.7-2.7 12.5-2.9 10.8-2.4 45.1-13.5 77-25 30.2-10.9 56.8-19.8 65.7-22.1 6.2-1.5 25.2-5.4 29.1-5.9 2.6-.3 7.4-1 10.7-1.4 7.4-1.1 47.1-1.1 50.5-.1 1.9.6 1.2.8-3 1-3 .1-6.2.3-7 .4-.8.2-4.6.7-8.4 1.1-3.8.4-7.9.8-9 1-1.2.2-5.7.9-10.1 1.5-4.4.6-9.6 1.5-11.5 2-1.9.5-5.2 1.1-7.4 1.4-2.1.4-4.2.8-4.6 1.1-.3.2-2 .6-3.6.9-5.6 1-25 6.7-36.3 10.7-18.3 6.5-33.5 13.3-67.3 30-38.4 19-60.6 27.8-76.8 30.4-1.9.3-4.2.8-5 1-3.8 1-15.5 1.8-26.5 1.9-10.7 0-27.2-1.1-28.5-1.9-.3-.2-2.9-.6-5.7-1-2.9-.3-6.7-1-8.5-1.5-1.7-.6-3.3-.8-3.5-.7-.1.2 2 2.7 4.7 5.5 11.4 11.9 30.2 21.9 50.8 27.2 9.6 2.4 16 3.2 28.9 3.5 9.2.1 12.9-.1 26.8-1.9 14.4-1.8 40.3-9.6 57.3-17.2 2.9-1.3 5.5-2.4 5.8-2.4 1.7 0 41.7-20.7 49.6-25.7 2.1-1.3 3.9-2.3 4.2-2.3.2 0 4.4-2.4 9.3-5.4 9.5-5.7 11.7-6.9 28.7-16.5 19.7-11.1 39.9-20 57.6-25.4 9.7-3 31.1-8.2 38.5-9.3 2.8-.5 5.3-.9 5.8-1 .4-.1 1.5-.2 2.5-.3 4.8-.4 4.6-1.7-1.3-10.1-11.7-16.6-27.1-29.2-44.7-36.7-7.8-3.3-8.6-3.9-6.6-4.6 9.2-3.5 17.3-9.1 19.9-13.9 1.2-2.3-.1-2.3-6.3.1z"/></svg>